<svg xmlns="http://www.w3.org/2000/svg" width="19.605" height="16.567" viewBox="0 0 19.605 16.567">
  <path id="Path_353" data-name="Path 353" d="M1009.556,509.677h-3.38a1.351,1.351,0,0,1-1.351-1.351v-1.18a1.351,1.351,0,0,0-1.351-1.351h-4.737a1.352,1.352,0,0,0-1.351,1.351v1.18a1.351,1.351,0,0,1-1.351,1.351h-3.38a1.351,1.351,0,0,0-1.351,1.351v9.981a1.351,1.351,0,0,0,1.351,1.351h16.9a1.351,1.351,0,0,0,1.352-1.351v-9.981A1.351,1.351,0,0,0,1009.556,509.677Zm-8.451,10.293a4.021,4.021,0,1,1,4.021-4.021A4.021,4.021,0,0,1,1001.105,519.97Zm6.091-6.886a.821.821,0,1,1,.821-.822A.822.822,0,0,1,1007.2,513.084Z" transform="translate(-991.303 -505.794)" fill="#518acc"/>
</svg>
