<svg xmlns="http://www.w3.org/2000/svg" width="18.735" height="17.917" viewBox="0 0 18.735 17.917">
  <g id="Group_154" data-name="Group 154" transform="translate(-309.655 -1563.97) rotate(56)">
    <path id="Path_480" data-name="Path 480" d="M1494.862,607.561" transform="translate(-12.104 -1.215)" fill="#fff" stroke="#000" stroke-linecap="round" stroke-linejoin="round" stroke-width="3.5"/>
    <path id="Path_481" data-name="Path 481" d="M1482.758,629.377a5.128,5.128,0,0,1-4.921-5.3v-6.859a.506.506,0,0,1,1.012,0v6.859a3.926,3.926,0,1,0,7.818,0V614.9a.506.506,0,0,1,1.012,0v9.174A5.128,5.128,0,0,1,1482.758,629.377Z" transform="translate(0 -6.074)" fill="#fff"/>
    <path id="Path_482" data-name="Path 482" d="M1491.452,636.868a2.247,2.247,0,0,1-2.161-2.319v-5.2a.506.506,0,0,1,1.011,0v5.2a1.159,1.159,0,1,0,2.3,0,.506.506,0,1,1,1.012,0A2.246,2.246,0,0,1,1491.452,636.868Z" transform="translate(-8.143 -16.343)" fill="#fff"/>
    <path id="Path_483" data-name="Path 483" d="M1494.7,607.6" transform="translate(-11.986 -1.244)" fill="#fff" stroke="#000" stroke-linecap="round" stroke-linejoin="round" stroke-width="3.5"/>
    <path id="Path_484" data-name="Path 484" d="M1484.964,618.711a.505.505,0,0,1-.506-.506v-8.537a2.8,2.8,0,1,0-5.609,0v2.937a.506.506,0,0,1-1.012,0v-2.937a3.816,3.816,0,1,1,7.632,0v8.537A.505.505,0,0,1,1484.964,618.711Z" transform="translate(0)" fill="#fff"/>
  </g>
</svg>
