<svg xmlns="http://www.w3.org/2000/svg" width="119.612" height="39.605" viewBox="0 0 119.612 39.605">
  <defs>
    <style>
      .cls-1 {
        fill: #fff;
      }
    </style>
  </defs>
  <g id="Group_13" data-name="Group 13" transform="translate(0 0)">
    <g id="Group_10" data-name="Group 10" transform="translate(82.358)">
      <path id="Path_15" data-name="Path 15" class="cls-1" d="M488.634,270.249h-6.511a17.717,17.717,0,0,0,1.32,2.261h6.349A16.618,16.618,0,0,1,488.634,270.249Z" transform="translate(-480.043 -241.259)"/>
      <path id="Path_16" data-name="Path 16" class="cls-1" d="M508.989,273.782a15.277,15.277,0,0,1-3.525,1.756,14.95,14.95,0,0,1-4.015.795,8.973,8.973,0,0,1-1,.055h-1.012a13.985,13.985,0,0,1-6.06-1.32,13.072,13.072,0,0,1-2.8-1.808h-6.058a20.05,20.05,0,0,0,6.04,3.31A26.1,26.1,0,0,0,499.442,278a35.583,35.583,0,0,0,4.339-.254,42.742,42.742,0,0,0,4.251-.723,35.558,35.558,0,0,0,3.851-1.1,19.341,19.341,0,0,0,3.128-1.447v-1.211h-5.318C509.46,273.439,509.225,273.62,508.989,273.782Z" transform="translate(-477.757 -238.391)"/>
      <path id="Path_17" data-name="Path 17" class="cls-1" d="M488.031,267.23h-6.852a18.61,18.61,0,0,0,.469,2.279h6.747C488.25,268.767,488.123,268.007,488.031,267.23Z" transform="translate(-480.943 -244.136)"/>
      <path id="Path_18" data-name="Path 18" class="cls-1" d="M499.616,270.792a12.4,12.4,0,0,1-1.717,1.719h4.367v-2.261h-2.277A5.007,5.007,0,0,0,499.616,270.792Z" transform="translate(-465.012 -241.259)"/>
      <path id="Path_19" data-name="Path 19" class="cls-1" d="M515.184,257.5a31.654,31.654,0,0,0-3.851-1.1,34.9,34.9,0,0,0-4.251-.725,36.077,36.077,0,0,0-4.339-.271,26.483,26.483,0,0,0-8.879,1.429,19.978,19.978,0,0,0-6.837,4.015,17.667,17.667,0,0,0-4.394,6.239,20.075,20.075,0,0,0-1.574,7.794h6.909a24.375,24.375,0,0,1,1.049-7.106,16.916,16.916,0,0,1,3-5.733,13.217,13.217,0,0,1,4.665-3.689,13.712,13.712,0,0,1,6.06-1.32c.072,0,.344.018.832.035s.994.037,1.537.055c.307.01.557.027.828.041,1.388.182,7.94,1.209,10.489,10.575h1.884v-8.807A21.2,21.2,0,0,0,515.184,257.5Z" transform="translate(-481.058 -255.404)"/>
    </g>
    <path id="Path_44" data-name="Path 44" class="cls-1" d="M472.935,267.625h-2.65a19.625,19.625,0,0,0-.73-5.37,5.984,5.984,0,0,0-2.246-3.234,7.078,7.078,0,0,0-4.275-1h-4.074l-.037,15.857h-6.011v-15.8l-4.749.055a5.662,5.662,0,0,0-5.042,2.32c-1.058,1.535-1.59,3.947-1.59,7.179h-2.648V255.4h34.051Z" transform="translate(-438.884 -255.404)"/>
    <path id="Path_45" data-name="Path 45" class="cls-1" d="M472.935,267.738h-2.65a20.524,20.524,0,0,0-.73-5.484,5.984,5.984,0,0,0-2.246-3.234,7.078,7.078,0,0,0-4.275-1H459.32l-.035,16.865h-6.62v-16.81l-4.5.055a5.662,5.662,0,0,0-5.042,2.32c-1.058,1.535-1.59,4.058-1.59,7.292h-2.648V255.4h34.051Z" transform="translate(-438.884 -255.404)"/>
    <path id="Path_46" data-name="Path 46" class="cls-1" d="M467.233,270.249h-6.511a17.468,17.468,0,0,0,1.32,2.261h6.347A16.372,16.372,0,0,1,467.233,270.249Z" transform="translate(-418.076 -241.259)"/>
    <path id="Path_47" data-name="Path 47" class="cls-1" d="M487.589,273.782a15.29,15.29,0,0,1-3.527,1.756,14.92,14.92,0,0,1-4.015.795,8.91,8.91,0,0,1-.994.055H478.04a13.976,13.976,0,0,1-6.058-1.32,13.075,13.075,0,0,1-2.8-1.808h-6.06a20.061,20.061,0,0,0,6.042,3.31A26.085,26.085,0,0,0,478.04,278a35.613,35.613,0,0,0,4.341-.254,42.706,42.706,0,0,0,4.249-.723,35.726,35.726,0,0,0,3.853-1.1,19.339,19.339,0,0,0,3.129-1.447v-1.211h-5.318C488.059,273.439,487.823,273.62,487.589,273.782Z" transform="translate(-415.792 -238.391)"/>
    <path id="Path_48" data-name="Path 48" class="cls-1" d="M466.631,267.23h-6.854a18.987,18.987,0,0,0,.471,2.279h6.745C466.848,268.767,466.721,268.007,466.631,267.23Z" transform="translate(-418.977 -244.136)"/>
    <path id="Path_49" data-name="Path 49" class="cls-1" d="M478.215,270.792a12.4,12.4,0,0,1-1.717,1.719h4.367v-2.261h-2.277A4.728,4.728,0,0,0,478.215,270.792Z" transform="translate(-403.045 -241.259)"/>
    <path id="Path_50" data-name="Path 50" class="cls-1" d="M493.782,257.5a31.787,31.787,0,0,0-3.853-1.1,34.868,34.868,0,0,0-4.249-.725,36.107,36.107,0,0,0-4.341-.271,26.472,26.472,0,0,0-8.878,1.429,19.98,19.98,0,0,0-6.837,4.015,17.641,17.641,0,0,0-4.394,6.239,20,20,0,0,0-1.574,7.794h6.907a24.515,24.515,0,0,1,1.049-7.106,16.953,16.953,0,0,1,3-5.733,13.2,13.2,0,0,1,4.665-3.689,13.7,13.7,0,0,1,6.058-1.32c.072,0,.344.018.832.035s1,.037,1.537.055c.309.01.557.027.83.041,1.386.182,7.94,1.209,10.487,10.575h1.886v-8.807A21.2,21.2,0,0,0,493.782,257.5Z" transform="translate(-419.091 -255.404)"/>
    <rect id="Rectangle_9" data-name="Rectangle 9" class="cls-1" width="6.637" height="2.279" transform="translate(13.782 23.094)"/>
    <rect id="Rectangle_10" data-name="Rectangle 10" class="cls-1" width="6.637" height="2.279" transform="translate(13.782 28.99)"/>
    <path id="Path_51" data-name="Path 51" class="cls-1" d="M455.446,275.518h6.294V278H442.932v-2.478l.685-.055c1.34-.07,4.124-.469,4.72-1.174a2.088,2.088,0,0,0,.471-1.031h6.638Z" transform="translate(-435.027 -238.391)"/>
  </g>
</svg>
