<svg xmlns="http://www.w3.org/2000/svg" xmlns:xlink="http://www.w3.org/1999/xlink" width="59.505" height="68.664" viewBox="0 0 59.505 68.664">
  <defs>
    <linearGradient id="linear-gradient" x1="0.5" y1="-24.414" x2="0.5" y2="14.657" gradientUnits="objectBoundingBox">
      <stop offset="0" stop-color="#e08345"/>
      <stop offset="0.508" stop-color="#edb35c"/>
      <stop offset="1" stop-color="#f9e273"/>
    </linearGradient>
    <linearGradient id="linear-gradient-2" x1="0.5" y1="-17.896" x2="0.5" y2="14.739" xlink:href="#linear-gradient"/>
    <linearGradient id="linear-gradient-3" x1="0.5" y1="-12.876" x2="0.5" y2="14.33" xlink:href="#linear-gradient"/>
    <linearGradient id="linear-gradient-4" x1="0.5" y1="0.018" x2="0.5" y2="2.668" xlink:href="#linear-gradient"/>
    <linearGradient id="linear-gradient-5" x1="0.5" y1="-72.344" x2="0.5" y2="22.057" xlink:href="#linear-gradient"/>
    <linearGradient id="linear-gradient-6" x1="0.5" y1="-35.851" x2="0.5" y2="15.483" xlink:href="#linear-gradient"/>
    <linearGradient id="linear-gradient-7" x1="0.5" y1="-8.338" x2="0.5" y2="12.53" xlink:href="#linear-gradient"/>
    <linearGradient id="linear-gradient-8" x1="0.5" y1="-121.479" x2="0.5" y2="-0.017" xlink:href="#linear-gradient"/>
    <linearGradient id="linear-gradient-9" x1="0.5" y1="-59.227" x2="0.5" y2="-1.249" xlink:href="#linear-gradient"/>
    <linearGradient id="linear-gradient-10" x1="0.5" y1="-117.958" x2="0.5" y2="2.57" xlink:href="#linear-gradient"/>
    <linearGradient id="linear-gradient-12" x1="0.5" y1="-12.616" x2="0.5" y2="1.486" xlink:href="#linear-gradient"/>
    <linearGradient id="linear-gradient-13" x1="0.5" y1="-6.204" x2="0.5" y2="0.731" xlink:href="#linear-gradient"/>
    <linearGradient id="linear-gradient-14" x1="0.5" y1="-27.753" x2="0.5" y2="3.27" xlink:href="#linear-gradient"/>
    <linearGradient id="linear-gradient-15" x1="0.5" y1="-27.753" x2="0.5" y2="3.27" xlink:href="#linear-gradient"/>
    <linearGradient id="linear-gradient-16" x1="0.5" y1="-27.76" x2="0.5" y2="3.269" xlink:href="#linear-gradient"/>
    <linearGradient id="linear-gradient-17" x1="0.5" y1="-29.055" x2="0.5" y2="1.535" xlink:href="#linear-gradient"/>
    <linearGradient id="linear-gradient-18" x1="0.5" y1="-29.013" x2="0.5" y2="1.531" xlink:href="#linear-gradient"/>
    <linearGradient id="linear-gradient-19" x1="0.5" y1="-29.482" x2="0.5" y2="1.547" xlink:href="#linear-gradient"/>
    <linearGradient id="linear-gradient-20" x1="0.5" y1="-29.482" x2="0.5" y2="1.547" xlink:href="#linear-gradient"/>
    <linearGradient id="linear-gradient-22" x1="0.5" y1="-29.055" x2="0.5" y2="1.535" xlink:href="#linear-gradient"/>
    <linearGradient id="linear-gradient-23" x1="0.5" y1="-29.474" x2="0.5" y2="1.548" xlink:href="#linear-gradient"/>
    <linearGradient id="linear-gradient-24" x1="0.5" y1="-29.474" x2="0.5" y2="1.548" xlink:href="#linear-gradient"/>
    <linearGradient id="linear-gradient-25" x1="0.5" y1="-28.813" x2="0.5" y2="1.514" xlink:href="#linear-gradient"/>
    <linearGradient id="linear-gradient-27" x1="0.5" y1="-30.753" x2="0.5" y2="-0.162" xlink:href="#linear-gradient"/>
    <linearGradient id="linear-gradient-28" x1="0.5" y1="-30.707" x2="0.5" y2="-0.163" xlink:href="#linear-gradient"/>
    <linearGradient id="linear-gradient-29" x1="0.5" y1="-31.104" x2="0.5" y2="-0.17" xlink:href="#linear-gradient"/>
    <linearGradient id="linear-gradient-30" x1="0.5" y1="-31.197" x2="0.5" y2="-0.175" xlink:href="#linear-gradient"/>
    <linearGradient id="linear-gradient-32" x1="0.5" y1="-31.104" x2="0.5" y2="-0.17" xlink:href="#linear-gradient"/>
    <linearGradient id="linear-gradient-33" x1="0.5" y1="-30.474" x2="0.5" y2="-0.147" xlink:href="#linear-gradient"/>
    <linearGradient id="linear-gradient-34" x1="0.5" y1="-31.196" x2="0.5" y2="-0.173" xlink:href="#linear-gradient"/>
    <linearGradient id="linear-gradient-37" x1="0.5" y1="-30.287" x2="0.5" y2="-0.168" xlink:href="#linear-gradient"/>
    <linearGradient id="linear-gradient-38" x1="0.5" y1="-13.304" x2="0.5" y2="1.567" xlink:href="#linear-gradient"/>
    <linearGradient id="linear-gradient-42" x1="0.5" y1="-117.958" x2="0.5" y2="2.57" xlink:href="#linear-gradient"/>
    <linearGradient id="linear-gradient-43" x1="0.5" y1="-121.479" x2="0.5" y2="-0.017" xlink:href="#linear-gradient"/>
    <linearGradient id="linear-gradient-45" x1="0.5" y1="-117.961" x2="0.5" y2="2.57" xlink:href="#linear-gradient"/>
    <linearGradient id="linear-gradient-46" x1="0.5" y1="-120.548" x2="0.5" y2="-0.017" xlink:href="#linear-gradient"/>
  </defs>
  <g id="Group_707" data-name="Group 707" opacity="0.814">
    <g id="Group_91" data-name="Group 91" transform="translate(5.191 0)">
      <path id="Path_408" data-name="Path 408" d="M475.388,217.465H460.5c.21.285.43.565.649.841s.472.565.719.84h13.663a13.267,13.267,0,0,1-1.812-.84H486.6a13.077,13.077,0,0,1-1.817.84H498.9c.243-.271.48-.556.714-.84s.444-.556.654-.841H475.388Z" transform="translate(-455.599 -175.986)" fill="url(#linear-gradient)"/>
      <path id="Path_409" data-name="Path 409" d="M464.891,206.705h-10.6c.14.331.289.658.443.985.009.014.014.028.024.042.159.332.331.663.509.985h11.556c-.355-.317-.7-.644-1.032-.985h22.552c-.332.346-.677.677-1.036.985h11.57c.178-.322.346-.654.509-.985a.169.169,0,0,1,.019-.042c.154-.322.3-.654.448-.985H464.891Z" transform="translate(-452.289 -170.25)" fill="url(#linear-gradient-2)"/>
      <path id="Path_410" data-name="Path 410" d="M460.481,196.145h-9.459c.074.4.168.8.266,1.2a.016.016,0,0,0,.005.014c.1.4.21.8.332,1.2H461.5c-.205-.388-.4-.789-.565-1.2h28.786a12.97,12.97,0,0,1-.574,1.2h9.884c.122-.4.234-.794.332-1.2a.016.016,0,0,0,.005-.014c.1-.4.191-.794.271-1.2H460.481Z" transform="translate(-450.546 -164.62)" fill="url(#linear-gradient-3)"/>
      <path id="Path_411" data-name="Path 411" d="M474.787,137.8a15.62,15.62,0,0,1,14.9,10.921h9.444a24.784,24.784,0,0,0-49.121,4.689h9.17A15.611,15.611,0,0,1,474.787,137.8Z" transform="translate(-450.004 -128.63)" fill="url(#linear-gradient-4)"/>
      <path id="Path_412" data-name="Path 412" d="M493.013,237.827a.069.069,0,0,0,.033,0,24.2,24.2,0,0,0,3.362.229,25.068,25.068,0,0,0,3.371-.229.07.07,0,0,0,.033,0,23.253,23.253,0,0,0,2.442-.462H490.562A23.611,23.611,0,0,0,493.013,237.827Z" transform="translate(-471.624 -186.594)" fill="url(#linear-gradient-5)"/>
      <path id="Path_413" data-name="Path 413" d="M471.512,228.431a.241.241,0,0,0,.037.028c.3.215.616.425.929.626h26.643c.318-.2.63-.411.939-.626a.252.252,0,0,1,.037-.028c.285-.205.57-.411.845-.626h-30.28C470.938,228.02,471.222,228.23,471.512,228.431Z" transform="translate(-461.015 -181.498)" fill="url(#linear-gradient-6)"/>
      <path id="Path_414" data-name="Path 414" d="M450,185.775v.093c0,.556.023,1.107.061,1.653v.037c.037.458.079.915.14,1.363h9.287c-.093-.448-.163-.9-.214-1.363h39.848v-1.784H450Z" transform="translate(-450.002 -159.093)" fill="url(#linear-gradient-7)"/>
    </g>
    <g id="Group_95" data-name="Group 95" transform="translate(0 59.194)">
      <g id="Group_92" data-name="Group 92" transform="translate(19.692 0)">
        <path id="Path_415" data-name="Path 415" d="M483.68,270.249h-1.557a4.242,4.242,0,0,0,.316.541h1.518A3.971,3.971,0,0,1,483.68,270.249Z" transform="translate(-481.626 -263.318)" fill="url(#linear-gradient-8)"/>
        <path id="Path_416" data-name="Path 416" d="M490.372,273.384a3.654,3.654,0,0,1-.843.42,3.575,3.575,0,0,1-.96.19,2.141,2.141,0,0,1-.238.013h-.242a3.344,3.344,0,0,1-1.449-.316,3.125,3.125,0,0,1-.67-.432h-1.448a4.8,4.8,0,0,0,1.444.791,6.239,6.239,0,0,0,2.123.341,8.507,8.507,0,0,0,1.037-.061,10.238,10.238,0,0,0,1.017-.173,8.5,8.5,0,0,0,.921-.264,4.625,4.625,0,0,0,.748-.346v-.289h-1.271C490.485,273.3,490.429,273.345,490.372,273.384Z" transform="translate(-482.905 -264.922)" fill="url(#linear-gradient-9)"/>
        <path id="Path_417" data-name="Path 417" d="M482.817,267.23h-1.638a4.467,4.467,0,0,0,.112.545H482.9C482.87,267.6,482.839,267.416,482.817,267.23Z" transform="translate(-481.123 -261.708)" fill="url(#linear-gradient-10)"/>
        <path id="Path_418" data-name="Path 418" d="M498.309,270.379a2.955,2.955,0,0,1-.41.411h1.044v-.541H498.4A1.191,1.191,0,0,0,498.309,270.379Z" transform="translate(-490.035 -263.318)" fill="url(#linear-gradient-8)"/>
        <path id="Path_419" data-name="Path 419" d="M489.218,255.906a7.554,7.554,0,0,0-.921-.264,8.341,8.341,0,0,0-1.016-.173,8.623,8.623,0,0,0-1.038-.065,6.333,6.333,0,0,0-2.123.342,4.779,4.779,0,0,0-1.635.96,4.225,4.225,0,0,0-1.051,1.492,4.8,4.8,0,0,0-.376,1.864h1.652a5.832,5.832,0,0,1,.251-1.7,4.046,4.046,0,0,1,.718-1.371,3.161,3.161,0,0,1,1.115-.882,3.278,3.278,0,0,1,1.449-.316l.2.008.367.013c.073,0,.133.007.2.01a3.03,3.03,0,0,1,2.508,2.528h.451v-2.106A5.06,5.06,0,0,0,489.218,255.906Z" transform="translate(-481.058 -255.404)" fill="url(#linear-gradient-12)"/>
      </g>
      <rect id="Rectangle_58" data-name="Rectangle 58" width="0.376" height="9.47" transform="translate(31.84 0)" fill="url(#linear-gradient-13)"/>
      <g id="Group_94" data-name="Group 94" transform="translate(34.452 0)">
        <g id="Group_93" data-name="Group 93">
          <path id="Path_420" data-name="Path 420" d="M512.706,255.972l-.036,0c0-.01,0-.043.007-.1s.01-.115.016-.179l.013-.171a.338.338,0,0,1,.009-.075l0-.041h1.974l0,.041c.006.078.013.166.021.263s.015.185.021.264h-.027l-.082-.194a.482.482,0,0,0-.156-.217.419.419,0,0,0-.25-.068h-.343v1.743a.279.279,0,0,0,.049.183.211.211,0,0,0,.158.064l.036,0v.036H513.3v-.036l.036,0a.212.212,0,0,0,.158-.064.282.282,0,0,0,.048-.183v-1.743h-.346a.409.409,0,0,0-.244.068.52.52,0,0,0-.162.217Z" transform="translate(-512.669 -255.404)" fill="url(#linear-gradient-14)"/>
          <path id="Path_421" data-name="Path 421" d="M520.112,257.485v.036h-.823v-.036l.036,0a.211.211,0,0,0,.158-.064.28.28,0,0,0,.049-.183v-.786h-1.163v.786a.283.283,0,0,0,.049.183.211.211,0,0,0,.158.064l.036,0v.036h-.823v-.036l.036,0a.211.211,0,0,0,.158-.064.282.282,0,0,0,.049-.183V255.69a.282.282,0,0,0-.049-.183.212.212,0,0,0-.158-.064l-.036,0V255.4h.823v.036l-.036,0a.211.211,0,0,0-.158.064.283.283,0,0,0-.049.183v.68h1.163v-.68a.28.28,0,0,0-.049-.183.211.211,0,0,0-.158-.064l-.036,0V255.4h.823v.036l-.036,0a.214.214,0,0,0-.158.064.283.283,0,0,0-.048.183v1.546a.284.284,0,0,0,.048.183.212.212,0,0,0,.158.064Z" transform="translate(-515.398 -255.404)" fill="url(#linear-gradient-15)"/>
          <path id="Path_422" data-name="Path 422" d="M524.765,256.71h0l-.012-.042a.294.294,0,0,0-.128-.176.5.5,0,0,0-.256-.055h-.378v1h.506a.558.558,0,0,0,.311-.084.7.7,0,0,0,.225-.266l.046-.082h.024c-.012.073-.026.153-.041.24l-.041.237h0l-.006.043h-1.6v-.036l.036,0a.211.211,0,0,0,.158-.064.278.278,0,0,0,.049-.182V255.7a.277.277,0,0,0-.049-.182.212.212,0,0,0-.158-.064l-.036,0v-.036h1.6v.519h-.024l-.028-.082a.523.523,0,0,0-.175-.266.492.492,0,0,0-.3-.083h-.494v.859h.378a.548.548,0,0,0,.255-.049.28.28,0,0,0,.129-.158l.012-.036h.028v.595Z" transform="translate(-518.394 -255.408)" fill="url(#linear-gradient-16)"/>
          <path id="Path_423" data-name="Path 423" d="M514.684,263.839l0,0-.021-.061c-.008-.022-.015-.042-.021-.061a.717.717,0,0,0-.214-.3.629.629,0,0,0-.318-.145.1.1,0,0,0-.035-.006l-.079,0-.083,0h-.045a.751.751,0,0,0-.328.071.729.729,0,0,0-.254.2.929.929,0,0,0-.162.311,1.444,1.444,0,0,0,0,.807.927.927,0,0,0,.162.31.73.73,0,0,0,.254.2.75.75,0,0,0,.328.071h.055l.055,0a.779.779,0,0,0,.217-.043.8.8,0,0,0,.192-.1.723.723,0,0,0,.153-.141.64.64,0,0,0,.1-.177c.006-.018.013-.038.021-.061l.021-.061h.027v.477a1.036,1.036,0,0,1-.17.078,1.791,1.791,0,0,1-.208.06,2.192,2.192,0,0,1-.231.039,2.03,2.03,0,0,1-.235.014,1.415,1.415,0,0,1-.481-.078,1.083,1.083,0,0,1-.371-.218.964.964,0,0,1-.239-.339,1.183,1.183,0,0,1,0-.881.969.969,0,0,1,.239-.337,1.076,1.076,0,0,1,.371-.218,1.416,1.416,0,0,1,.481-.078,1.928,1.928,0,0,1,.235.014,2.328,2.328,0,0,1,.231.039,1.809,1.809,0,0,1,.208.06,1.124,1.124,0,0,1,.17.078v.477Z" transform="translate(-512.679 -259.544)" fill="url(#linear-gradient-17)"/>
          <path id="Path_424" data-name="Path 424" d="M517.664,264.252a1.208,1.208,0,0,1,.07-.413.969.969,0,0,1,.21-.342,1.006,1.006,0,0,1,.346-.234,1.241,1.241,0,0,1,.48-.086,1.227,1.227,0,0,1,.478.086,1.018,1.018,0,0,1,.345.234.983.983,0,0,1,.21.342,1.262,1.262,0,0,1,0,.826.975.975,0,0,1-.21.342,1.017,1.017,0,0,1-.345.234,1.227,1.227,0,0,1-.478.086,1.24,1.24,0,0,1-.48-.086,1,1,0,0,1-.346-.234.961.961,0,0,1-.21-.342A1.206,1.206,0,0,1,517.664,264.252Zm.377,0a1.536,1.536,0,0,0,.045.38,1,1,0,0,0,.137.314.682.682,0,0,0,.228.214.619.619,0,0,0,.316.079.611.611,0,0,0,.315-.079.677.677,0,0,0,.225-.214,1.018,1.018,0,0,0,.135-.314,1.611,1.611,0,0,0,0-.759,1.02,1.02,0,0,0-.135-.315.686.686,0,0,0-.225-.214.611.611,0,0,0-.315-.079.619.619,0,0,0-.316.079.691.691,0,0,0-.228.214,1,1,0,0,0-.137.315A1.529,1.529,0,0,0,518.041,264.252Z" transform="translate(-515.332 -259.548)" fill="url(#linear-gradient-18)"/>
          <path id="Path_425" data-name="Path 425" d="M524.692,264.762l0,0,.021.006c.014.008.021.014.021.018-.012.077-.027.161-.043.251s-.03.174-.042.25l-.006.042h-1.6V265.3l.036,0a.213.213,0,0,0,.158-.063.283.283,0,0,0,.048-.183V263.5a.282.282,0,0,0-.048-.183.215.215,0,0,0-.158-.064l-.036,0v-.036h.823v.036l-.036,0a.213.213,0,0,0-.158.064.28.28,0,0,0-.049.183v1.743h.537a.466.466,0,0,0,.275-.076.584.584,0,0,0,.183-.243Z" transform="translate(-518.199 -259.568)" fill="url(#linear-gradient-19)"/>
          <path id="Path_426" data-name="Path 426" d="M528.978,264.762l0,0,.022.006c.014.008.021.014.021.018-.012.077-.026.161-.042.251s-.03.174-.043.25l-.006.042h-1.6V265.3l.037,0a.211.211,0,0,0,.158-.063.282.282,0,0,0,.049-.183V263.5a.282.282,0,0,0-.049-.183.213.213,0,0,0-.158-.064l-.037,0v-.036h.823v.036l-.036,0a.212.212,0,0,0-.158.064.283.283,0,0,0-.049.183v1.743h.537a.464.464,0,0,0,.275-.076.58.58,0,0,0,.184-.243Z" transform="translate(-520.484 -259.568)" fill="url(#linear-gradient-20)"/>
          <path id="Path_427" data-name="Path 427" d="M532.955,264.516h0l-.012-.042a.3.3,0,0,0-.128-.176.5.5,0,0,0-.256-.054h-.378v1h.506a.555.555,0,0,0,.311-.084.7.7,0,0,0,.225-.266l.046-.082h.024q-.018.109-.041.24t-.041.237h0l-.006.042h-1.6V265.3l.036,0a.211.211,0,0,0,.158-.063.283.283,0,0,0,.049-.183V263.5a.282.282,0,0,0-.049-.183.213.213,0,0,0-.158-.064l-.036,0v-.036h1.6v.519h-.025l-.027-.082a.518.518,0,0,0-.175-.266.49.49,0,0,0-.3-.084h-.493v.86h.378a.539.539,0,0,0,.254-.049.278.278,0,0,0,.13-.158l.012-.036h.027v.6Z" transform="translate(-522.759 -259.568)" fill="url(#linear-gradient-19)"/>
          <path id="Path_428" data-name="Path 428" d="M537.878,263.839l0,0c-.006-.018-.013-.038-.021-.061l-.021-.061a.724.724,0,0,0-.214-.3.627.627,0,0,0-.317-.145.1.1,0,0,0-.035-.006l-.079,0-.084,0h-.046a.747.747,0,0,0-.328.071.72.72,0,0,0-.254.2.932.932,0,0,0-.162.311,1.434,1.434,0,0,0,0,.807.929.929,0,0,0,.162.31.721.721,0,0,0,.254.2.747.747,0,0,0,.328.071h.055l.055,0a.774.774,0,0,0,.217-.043.79.79,0,0,0,.191-.1.722.722,0,0,0,.154-.141.659.659,0,0,0,.1-.177l.021-.061c.008-.022.015-.042.021-.061h.028v.477a1.041,1.041,0,0,1-.17.078,1.79,1.79,0,0,1-.208.06,2.223,2.223,0,0,1-.231.039,2.025,2.025,0,0,1-.235.014,1.419,1.419,0,0,1-.481-.078,1.082,1.082,0,0,1-.37-.218.958.958,0,0,1-.238-.339,1.183,1.183,0,0,1,0-.881.962.962,0,0,1,.238-.337,1.074,1.074,0,0,1,.37-.218,1.419,1.419,0,0,1,.481-.078,1.923,1.923,0,0,1,.235.014c.08.009.157.022.231.039a1.808,1.808,0,0,1,.208.06,1.13,1.13,0,0,1,.17.078v.477Z" transform="translate(-525.044 -259.544)" fill="url(#linear-gradient-22)"/>
          <path id="Path_429" data-name="Path 429" d="M540.882,263.777l-.036,0c0-.01,0-.043.008-.1s.01-.115.015-.179l.014-.17a.351.351,0,0,1,.009-.075l0-.042h1.974l0,.042c.006.077.014.165.021.262s.015.185.021.264h-.027l-.082-.194a.479.479,0,0,0-.156-.218.422.422,0,0,0-.25-.068h-.343v1.743a.282.282,0,0,0,.049.182.211.211,0,0,0,.158.063l.036,0v.036h-.823v-.036l.037,0a.211.211,0,0,0,.158-.063.281.281,0,0,0,.049-.182V263.3h-.346a.411.411,0,0,0-.244.068.519.519,0,0,0-.162.218Z" transform="translate(-527.69 -259.565)" fill="url(#linear-gradient-23)"/>
          <path id="Path_430" data-name="Path 430" d="M546.768,265.29v.036h-.823v-.036l.036,0a.213.213,0,0,0,.158-.063.281.281,0,0,0,.049-.182v-1.546a.28.28,0,0,0-.049-.182.213.213,0,0,0-.158-.064l-.036,0v-.037h.823v.037l-.036,0a.211.211,0,0,0-.158.064.278.278,0,0,0-.049.182v1.546a.279.279,0,0,0,.049.182.211.211,0,0,0,.158.063Z" transform="translate(-530.408 -259.565)" fill="url(#linear-gradient-24)"/>
          <path id="Path_431" data-name="Path 431" d="M549.23,263.246l.006,0-.061,0c-.148.006-.2.074-.152.2l.65,1.473.479-1.333a.326.326,0,0,0,.015-.255q-.046-.082-.21-.088l-.055,0v-.036h.714v.036l-.036,0a.314.314,0,0,0-.286.213l-.7,1.91h-.088l-.847-1.88a.518.518,0,0,0-.12-.182.249.249,0,0,0-.153-.064l-.028,0v-.037h.872Z" transform="translate(-531.694 -259.565)" fill="url(#linear-gradient-25)"/>
          <path id="Path_432" data-name="Path 432" d="M555.2,264.516h0l-.012-.042a.3.3,0,0,0-.128-.176.5.5,0,0,0-.256-.054h-.378v1h.506a.555.555,0,0,0,.311-.084.7.7,0,0,0,.225-.266l.046-.082h.024c-.012.073-.026.153-.041.24s-.029.166-.041.237h0l-.006.042h-1.6V265.3l.036,0a.211.211,0,0,0,.158-.063.28.28,0,0,0,.049-.183V263.5a.28.28,0,0,0-.049-.183.213.213,0,0,0-.158-.064l-.036,0v-.036h1.6v.519h-.025l-.027-.082a.519.519,0,0,0-.175-.266.489.489,0,0,0-.3-.084h-.493v.86h.378a.543.543,0,0,0,.255-.049.28.28,0,0,0,.129-.158l.012-.036h.028v.6Z" transform="translate(-534.617 -259.568)" fill="url(#linear-gradient-19)"/>
          <path id="Path_433" data-name="Path 433" d="M514.684,271.644l0,0-.021-.061c-.008-.022-.015-.042-.021-.061a.717.717,0,0,0-.214-.3.629.629,0,0,0-.318-.144s-.012,0-.035-.006l-.079,0-.083,0h-.045a.75.75,0,0,0-.328.071.739.739,0,0,0-.254.2.929.929,0,0,0-.162.311,1.444,1.444,0,0,0,0,.807.927.927,0,0,0,.162.311.724.724,0,0,0,.254.2.749.749,0,0,0,.328.071h.055a.422.422,0,0,0,.055,0,.777.777,0,0,0,.217-.042.8.8,0,0,0,.192-.1.725.725,0,0,0,.153-.141.637.637,0,0,0,.1-.176c.006-.018.013-.039.021-.061l.021-.06h.027v.477a1.076,1.076,0,0,1-.17.078,1.8,1.8,0,0,1-.208.06,2.192,2.192,0,0,1-.231.039,2.05,2.05,0,0,1-.235.014,1.416,1.416,0,0,1-.481-.078,1.083,1.083,0,0,1-.371-.217.972.972,0,0,1-.239-.339,1.183,1.183,0,0,1,0-.881.967.967,0,0,1,.239-.338,1.084,1.084,0,0,1,.371-.218,1.416,1.416,0,0,1,.481-.078,2.024,2.024,0,0,1,.235.014,2.176,2.176,0,0,1,.231.039,1.706,1.706,0,0,1,.208.06,1.073,1.073,0,0,1,.17.078v.477Z" transform="translate(-512.679 -263.705)" fill="url(#linear-gradient-27)"/>
          <path id="Path_434" data-name="Path 434" d="M517.664,272.057a1.21,1.21,0,0,1,.07-.413.963.963,0,0,1,.21-.341.992.992,0,0,1,.346-.234,1.23,1.23,0,0,1,.48-.087,1.217,1.217,0,0,1,.478.087,1,1,0,0,1,.345.234.977.977,0,0,1,.21.341,1.262,1.262,0,0,1,0,.826.975.975,0,0,1-.21.342,1,1,0,0,1-.345.234,1.219,1.219,0,0,1-.478.086,1.232,1.232,0,0,1-.48-.086.993.993,0,0,1-.346-.234.961.961,0,0,1-.21-.342A1.206,1.206,0,0,1,517.664,272.057Zm.377,0a1.536,1.536,0,0,0,.045.38,1,1,0,0,0,.137.314.688.688,0,0,0,.228.214.619.619,0,0,0,.316.079.611.611,0,0,0,.315-.079.683.683,0,0,0,.225-.214,1.012,1.012,0,0,0,.135-.314,1.612,1.612,0,0,0,0-.759,1.02,1.02,0,0,0-.135-.315.686.686,0,0,0-.225-.214.611.611,0,0,0-.315-.079.619.619,0,0,0-.316.079.691.691,0,0,0-.228.214,1,1,0,0,0-.137.315A1.536,1.536,0,0,0,518.041,272.057Z" transform="translate(-515.332 -263.708)" fill="url(#linear-gradient-28)"/>
          <path id="Path_435" data-name="Path 435" d="M523.026,271.044l-.009-.042h1.033a1.107,1.107,0,0,1,.308.04.738.738,0,0,1,.237.111.519.519,0,0,1,.154.172.465.465,0,0,1,.055.225.457.457,0,0,1-.141.339.783.783,0,0,1-.388.193q.067.082.219.279t.367.482l.094.118a.341.341,0,0,0,.062.064.127.127,0,0,0,.06.024c.02,0,.047,0,.082,0v.067h-.121c-.093,0-.167,0-.222-.008a.4.4,0,0,1-.144-.039.418.418,0,0,1-.123-.1c-.041-.047-.091-.11-.152-.191l-.3-.4c-.086-.114-.152-.2-.2-.26h-.289v.72a.281.281,0,0,0,.049.182.212.212,0,0,0,.158.064l.036,0v.037h-.823v-.037l.036,0a.211.211,0,0,0,.158-.064.277.277,0,0,0,.049-.182v-1.546a.278.278,0,0,0-.049-.182.213.213,0,0,0-.158-.064Zm.932.987h0a.478.478,0,0,0,.351-.131.472.472,0,0,0,.132-.35.5.5,0,0,0-.107-.335.361.361,0,0,0-.287-.125h-.45v.942Z" transform="translate(-518.185 -263.719)" fill="url(#linear-gradient-29)"/>
          <path id="Path_436" data-name="Path 436" d="M529.083,273.1l0,.04h-.82V273.1l.036,0a.211.211,0,0,0,.158-.064.278.278,0,0,0,.049-.182v-1.546a.277.277,0,0,0-.049-.182.211.211,0,0,0-.158-.064l-.036,0v-.036H529.3a1.1,1.1,0,0,1,.314.042.761.761,0,0,1,.241.119.527.527,0,0,1,.155.184.518.518,0,0,1,.055.238.476.476,0,0,1-.062.24.568.568,0,0,1-.175.187.877.877,0,0,1-.271.12,1.34,1.34,0,0,1-.35.042h-.369v.656a.28.28,0,0,0,.049.182.213.213,0,0,0,.158.064Zm-.243-.993h.372a.483.483,0,0,0,.361-.138.5.5,0,0,0,.136-.365.54.54,0,0,0-.113-.359.366.366,0,0,0-.3-.135h-.46Z" transform="translate(-520.98 -263.729)" fill="url(#linear-gradient-30)"/>
          <path id="Path_437" data-name="Path 437" d="M532.787,272.057a1.21,1.21,0,0,1,.07-.413.963.963,0,0,1,.209-.341,1,1,0,0,1,.347-.234,1.23,1.23,0,0,1,.48-.087,1.217,1.217,0,0,1,.478.087.994.994,0,0,1,.345.234.959.959,0,0,1,.21.341,1.252,1.252,0,0,1,0,.826.956.956,0,0,1-.21.342,1,1,0,0,1-.345.234,1.219,1.219,0,0,1-.478.086,1.232,1.232,0,0,1-.48-.086,1,1,0,0,1-.347-.234.96.96,0,0,1-.209-.342A1.206,1.206,0,0,1,532.787,272.057Zm.377,0a1.538,1.538,0,0,0,.045.38,1,1,0,0,0,.137.314.689.689,0,0,0,.228.214.617.617,0,0,0,.316.079.61.61,0,0,0,.314-.079.68.68,0,0,0,.225-.214,1.015,1.015,0,0,0,.135-.314,1.6,1.6,0,0,0,0-.759,1.023,1.023,0,0,0-.135-.315.683.683,0,0,0-.225-.214.61.61,0,0,0-.314-.079.617.617,0,0,0-.316.079.693.693,0,0,0-.228.214,1,1,0,0,0-.137.315A1.539,1.539,0,0,0,533.164,272.057Z" transform="translate(-523.393 -263.708)" fill="url(#linear-gradient-28)"/>
          <path id="Path_438" data-name="Path 438" d="M538.149,271.044,538.14,271h1.032a1.112,1.112,0,0,1,.309.04.749.749,0,0,1,.237.111.517.517,0,0,1,.154.172.464.464,0,0,1,.055.225.455.455,0,0,1-.142.339.778.778,0,0,1-.387.193q.067.082.219.279t.368.482l.094.118a.341.341,0,0,0,.062.064.125.125,0,0,0,.059.024c.02,0,.048,0,.082,0v.067h-.122c-.093,0-.167,0-.222-.008a.4.4,0,0,1-.144-.039.426.426,0,0,1-.123-.1c-.04-.047-.091-.11-.152-.191l-.3-.4c-.086-.114-.152-.2-.2-.26h-.289v.72a.28.28,0,0,0,.049.182.211.211,0,0,0,.158.064l.036,0v.037h-.823v-.037l.036,0a.212.212,0,0,0,.158-.064.281.281,0,0,0,.049-.182v-1.546a.281.281,0,0,0-.049-.182.214.214,0,0,0-.158-.064Zm.932.987h0a.476.476,0,0,0,.351-.131.47.47,0,0,0,.132-.35.5.5,0,0,0-.108-.335.361.361,0,0,0-.287-.125h-.449v.942Z" transform="translate(-526.247 -263.719)" fill="url(#linear-gradient-32)"/>
          <path id="Path_439" data-name="Path 439" d="M543.389,273.077v-.037l.04,0a.313.313,0,0,0,.285-.213l.726-1.913h.082l.823,1.88a.518.518,0,0,0,.135.2.3.3,0,0,0,.184.051v.037h-.9v-.037l.079,0c.083,0,.135-.025.156-.063a.226.226,0,0,0-.02-.184l-.195-.462H544l-.158.435a.231.231,0,0,0,0,.2.234.234,0,0,0,.19.07l.051,0v.037Zm1.352-.835-.377-.893-.328.893Z" transform="translate(-529.045 -263.67)" fill="url(#linear-gradient-33)"/>
          <path id="Path_440" data-name="Path 440" d="M548.934,271.583l-.036,0c0-.01,0-.043.007-.1s.01-.115.016-.179l.013-.17a.386.386,0,0,1,.009-.075l0-.041h1.975l0,.041q.009.117.021.262c.008.1.016.185.022.264h-.028l-.082-.194a.478.478,0,0,0-.157-.217.421.421,0,0,0-.251-.069h-.343v1.744a.28.28,0,0,0,.049.182.211.211,0,0,0,.158.064l.037,0v.037h-.823V273.1l.036,0a.211.211,0,0,0,.158-.064.28.28,0,0,0,.049-.182V271.1h-.346a.41.41,0,0,0-.245.069.517.517,0,0,0-.162.217Z" transform="translate(-531.982 -263.726)" fill="url(#linear-gradient-34)"/>
          <path id="Path_441" data-name="Path 441" d="M554.821,273.1v.037H554V273.1l.036,0a.211.211,0,0,0,.158-.064.281.281,0,0,0,.049-.182V271.3a.281.281,0,0,0-.049-.182.213.213,0,0,0-.158-.064l-.036,0v-.036h.823v.036l-.036,0a.213.213,0,0,0-.158.064.281.281,0,0,0-.049.182v1.546a.28.28,0,0,0,.049.182.212.212,0,0,0,.158.064Z" transform="translate(-534.7 -263.726)" fill="url(#linear-gradient-34)"/>
          <path id="Path_442" data-name="Path 442" d="M556.411,272.057a1.21,1.21,0,0,1,.07-.413.961.961,0,0,1,.21-.341.994.994,0,0,1,.346-.234,1.231,1.231,0,0,1,.48-.087,1.218,1.218,0,0,1,.478.087,1,1,0,0,1,.345.234.966.966,0,0,1,.209.341,1.252,1.252,0,0,1,0,.826.964.964,0,0,1-.209.342,1,1,0,0,1-.345.234,1.22,1.22,0,0,1-.478.086,1.232,1.232,0,0,1-.48-.086,1,1,0,0,1-.346-.234.959.959,0,0,1-.21-.342A1.206,1.206,0,0,1,556.411,272.057Zm.377,0a1.541,1.541,0,0,0,.045.38.994.994,0,0,0,.137.314.687.687,0,0,0,.228.214.618.618,0,0,0,.316.079.61.61,0,0,0,.314-.079.68.68,0,0,0,.225-.214,1.012,1.012,0,0,0,.135-.314,1.6,1.6,0,0,0,0-.759,1.02,1.02,0,0,0-.135-.315.683.683,0,0,0-.225-.214.61.61,0,0,0-.314-.079.618.618,0,0,0-.316.079.691.691,0,0,0-.228.214,1,1,0,0,0-.137.315A1.541,1.541,0,0,0,556.788,272.057Z" transform="translate(-535.987 -263.708)" fill="url(#linear-gradient-28)"/>
          <path id="Path_443" data-name="Path 443" d="M561.774,271.051l0-.036h.549l1.236,1.625V271.3a.278.278,0,0,0-.049-.182.212.212,0,0,0-.158-.064l-.036,0v-.036h.583v.036l-.036,0a.213.213,0,0,0-.158.064.279.279,0,0,0-.049.182v1.9h-.1q-.358-.474-.717-.943l-.72-.943v1.537a.277.277,0,0,0,.048.182.211.211,0,0,0,.158.064l.036,0v.037h-.583V273.1l.036,0a.213.213,0,0,0,.158-.064.28.28,0,0,0,.049-.182V271.3a.28.28,0,0,0-.049-.182.214.214,0,0,0-.158-.064Z" transform="translate(-538.844 -263.726)" fill="url(#linear-gradient-37)"/>
        </g>
      </g>
      <path id="Path_444" data-name="Path 444" d="M447.026,258.326h-.634a4.688,4.688,0,0,0-.175-1.284,1.431,1.431,0,0,0-.537-.773,1.693,1.693,0,0,0-1.022-.24h-.974l-.009,3.791h-1.437v-3.778l-1.136.013a1.354,1.354,0,0,0-1.206.555,3.077,3.077,0,0,0-.38,1.716h-.633V255.4h8.142Z" transform="translate(-438.884 -255.404)" fill="url(#linear-gradient-38)"/>
      <path id="Path_445" data-name="Path 445" d="M447.026,258.353h-.634a4.9,4.9,0,0,0-.175-1.311,1.431,1.431,0,0,0-.537-.773,1.693,1.693,0,0,0-1.022-.24h-.888l-.008,4.032h-1.583v-4.019l-1.076.013a1.354,1.354,0,0,0-1.206.555,3.179,3.179,0,0,0-.38,1.743h-.633V255.4h8.142Z" transform="translate(-438.884 -255.404)" fill="url(#linear-gradient-12)"/>
      <path id="Path_446" data-name="Path 446" d="M462.279,270.249h-1.557a4.182,4.182,0,0,0,.316.541h1.517A3.921,3.921,0,0,1,462.279,270.249Z" transform="translate(-450.525 -263.318)" fill="url(#linear-gradient-8)"/>
      <path id="Path_447" data-name="Path 447" d="M468.971,273.384a3.658,3.658,0,0,1-.843.42,3.567,3.567,0,0,1-.96.19,2.124,2.124,0,0,1-.238.013h-.242a3.342,3.342,0,0,1-1.448-.316,3.128,3.128,0,0,1-.67-.432H463.12a4.8,4.8,0,0,0,1.445.791,6.237,6.237,0,0,0,2.123.341,8.515,8.515,0,0,0,1.038-.061,10.225,10.225,0,0,0,1.016-.173,8.545,8.545,0,0,0,.921-.264,4.634,4.634,0,0,0,.748-.346v-.289h-1.271C469.083,273.3,469.027,273.345,468.971,273.384Z" transform="translate(-451.804 -264.922)" fill="url(#linear-gradient-9)"/>
      <path id="Path_448" data-name="Path 448" d="M461.416,267.23h-1.639a4.526,4.526,0,0,0,.113.545H461.5C461.468,267.6,461.437,267.416,461.416,267.23Z" transform="translate(-450.022 -261.708)" fill="url(#linear-gradient-42)"/>
      <path id="Path_449" data-name="Path 449" d="M476.909,270.379a2.961,2.961,0,0,1-.411.411h1.044v-.541H477A1.117,1.117,0,0,0,476.909,270.379Z" transform="translate(-458.935 -263.318)" fill="url(#linear-gradient-43)"/>
      <path id="Path_450" data-name="Path 450" d="M467.817,255.906a7.592,7.592,0,0,0-.921-.264,8.337,8.337,0,0,0-1.016-.173,8.63,8.63,0,0,0-1.038-.065,6.33,6.33,0,0,0-2.123.342,4.779,4.779,0,0,0-1.635.96,4.22,4.22,0,0,0-1.051,1.492,4.782,4.782,0,0,0-.376,1.864h1.651a5.859,5.859,0,0,1,.251-1.7,4.054,4.054,0,0,1,.718-1.371,3.156,3.156,0,0,1,1.116-.882,3.276,3.276,0,0,1,1.448-.316l.2.008.368.013c.074,0,.133.007.2.01a3.03,3.03,0,0,1,2.507,2.528h.451v-2.106A5.069,5.069,0,0,0,467.817,255.906Z" transform="translate(-449.958 -255.404)" fill="url(#linear-gradient-12)"/>
      <rect id="Rectangle_59" data-name="Rectangle 59" width="1.587" height="0.545" transform="translate(3.295 5.522)" fill="url(#linear-gradient-45)"/>
      <rect id="Rectangle_60" data-name="Rectangle 60" width="1.587" height="0.545" transform="translate(3.295 6.932)" fill="url(#linear-gradient-46)"/>
      <path id="Path_451" data-name="Path 451" d="M445.924,273.8h1.5v.593h-4.5V273.8l.164-.013a2.388,2.388,0,0,0,1.129-.281.5.5,0,0,0,.113-.247h1.587Z" transform="translate(-441.042 -264.922)" fill="url(#linear-gradient-9)"/>
    </g>
  </g>
</svg>
